ply
format ascii 1.0
comment Original LiDAR: USGS National Dataset
comment Cropped and converted to PLY by CloudCompare v2.11 alpha (Anoia)
comment Treetop positions derived via algorithm by Chris Calef.
element vertex 62
property float x
property float y
property float z
end_header
-288.0 68.01 -306.0
-360.0 70.31 -150.0
-369.0 74.47 -87.0
-384.0 71.16 -36.0
-396.0 70.37 99.0
-330.0 90.94 279.0
-393.0 121.52 345.0
-288.0 61.64 21.0
-270.0 82.41 -45.0
-234.0 68.17 93.0
-300.0 94.29 324.0
-231.0 67.65 -3.0
-159.0 66.07 -219.0
-96.0 89.5 -291.0
-114.0 110.63 27.0
-123.0 98.26 273.0
-180.0 89.27 399.0
-111.0 63.19 -108.0
-63.0 75.03 -393.0
-60.0 88.65 -198.0
-57.0 101.44 321.0
-51.0 99.9 387.0
48.0 114.79 -309.0
12.0 82.02 -99.0
54.0 102.65 237.0
72.0 106.03 -381.0
57.0 73.91 69.0
48.0 149.41 345.0
66.0 93.5 -159.0
87.0 73.0 -15.0
69.0 76.6 -87.0
111.0 72.86 108.0
129.0 95.24 393.0
117.0 103.97 -399.0
141.0 97.27 -216.0
171.0 97.57 -171.0
171.0 99.73 9.0
147.0 84.58 174.0
195.0 90.06 -102.0
168.0 92.98 273.0
120.0 89.79 339.0
186.0 87.53 -336.0
144.0 70.93 69.0
189.0 83.89 -282.0
162.0 68.53 108.0
237.0 101.7 348.0
222.0 92.12 -354.0
231.0 104.33 -183.0
225.0 63.32 93.0
252.0 81.49 -291.0
291.0 100.52 -60.0
288.0 101.54 -159.0
315.0 90.42 69.0
315.0 85.17 291.0
291.0 99.01 387.0
351.0 81.99 -399.0
351.0 99.11 -153.0
399.0 101.41 213.0
399.0 73.85 -291.0
384.0 72.77 -57.0
363.0 81.85 267.0
399.0 82.05 111.0
